<svg width="89" height="40" viewBox="0 0 89 40" fill="none" xmlns="http://www.w3.org/2000/svg">
<path d="M74.7939 7.66406V20.4484C77.3907 20.4484 79.4876 17.5854 79.4876 14.0554C79.4876 10.5254 77.3859 7.66406 74.7939 7.66406Z" fill="#3F04FE"/>
<path d="M13.9254 7.5874V20.3685C11.3286 20.3685 9.23169 17.5055 9.23169 13.9771C9.23169 10.4487 11.3318 7.58903 13.9254 7.5874Z" fill="#3F04FE"/>
<path d="M88.7906 30.0185C88.7906 35.5367 68.9139 39.9999 44.3953 39.9999C19.8768 39.9999 0 35.5318 0 30.0185C0 24.5052 19.8768 20.0436 44.3953 20.0436C68.9139 20.0436 88.7906 24.5052 88.7906 30.0185Z" fill="#3F04FE"/>
<path d="M83.3538 27.6867C83.3538 32.2019 65.9115 35.8617 44.402 35.8617C22.8925 35.8617 5.4502 32.2019 5.4502 27.6867C5.4502 23.1716 22.8941 19.5117 44.4101 19.5117C65.9261 19.5117 83.3538 23.1716 83.3538 27.6867Z" fill="white"/>
<path d="M67.2049 30.8953H21.5988C17.9309 30.8953 14.9446 27.7873 14.9446 23.9683V6.92693C14.9446 3.10803 17.9293 0 21.5988 0H67.2049C70.8729 0 73.8592 3.10803 73.8592 6.92693V23.9683C73.8592 27.7873 70.8761 30.8953 67.2049 30.8953Z" fill="#3F04FE"/>
<path d="M67.2325 1.0675H21.6264C18.5184 1.0675 15.9995 3.69188 15.9995 6.92813V23.9695C15.9995 27.2074 18.5184 29.8302 21.6264 29.8302H22.0857V29.8123C28.8065 28.7087 36.394 28.0871 44.4278 28.0871C52.4616 28.0871 60.0524 28.7087 66.7732 29.8123V29.8302H67.2309C70.3389 29.8302 72.8594 27.2074 72.8594 23.9695V6.92813C72.861 3.69188 70.3405 1.0675 67.2325 1.0675Z" fill="white"/>
<path d="M22.4817 10.4194H24.6143L26.3623 18.4435L28.3813 10.4194H30.5999L32.5037 18.3997L34.2679 10.4194H36.4135L33.6414 20.753H31.2962L29.433 13.3895L27.4854 20.7465L25.1531 20.7611L22.4817 10.4194Z" fill="#3F04FE"/>
<path d="M41.3601 16.7848H39.6982V20.753H37.7068V10.4194H41.3601C43.7492 10.4194 44.9437 11.8266 44.9437 13.6167C44.9437 15.1862 43.9196 16.7848 41.3601 16.7848ZM41.2757 15.1131C42.3989 15.1131 42.8987 14.5353 42.8987 13.6167C42.8987 12.6705 42.4005 12.1073 41.2757 12.1073H39.6982V15.1131H41.2757Z" fill="#3F04FE"/>
<path d="M56.5304 10.4194H58.6403L55.0015 20.753H52.5979L48.9526 10.4194H51.0852L53.8151 18.6366L56.5304 10.4194Z" fill="#3F04FE"/>
<path d="M63.5678 10.4194C65.9552 10.4194 67.1497 11.8558 67.1497 13.5875C67.1497 14.847 66.4827 16.1194 64.8889 16.5641L67.2633 20.753H64.9603L62.7709 16.7264H61.8328V20.753H59.843V10.4194H63.5678ZM63.4964 12.1366H61.8328V15.1748H63.4964C64.6049 15.1748 65.1031 14.5678 65.1031 13.6362C65.1031 12.7046 64.6081 12.1366 63.4964 12.1366Z" fill="#3F04FE"/>
</svg>
