<svg width="36" height="34" viewBox="0 0 36 34" fill="none" xmlns="http://www.w3.org/2000/svg">
<path d="M34.4973 1.83343H19.4998C19.102 1.83343 18.7206 1.99144 18.4393 2.2727C18.1581 2.55396 18 2.93543 18 3.33318V8.23737L14.4006 1.99841C14.138 1.54034 13.7591 1.15973 13.3022 0.895044C12.8453 0.630355 12.3266 0.490967 11.7986 0.490967C11.2705 0.490967 10.7519 0.630355 10.295 0.895044C9.83809 1.15973 9.45917 1.54034 9.19651 1.99841L0.197999 17.5808C0.0663682 17.8088 -0.00292969 18.0674 -0.00292969 18.3307C-0.00292969 18.594 0.0663682 18.8526 0.197999 19.0806C0.330133 19.3094 0.520398 19.4993 0.749527 19.631C0.978655 19.7627 1.23851 19.8315 1.50278 19.8304H7.93672C7.64553 20.8036 7.49898 21.8142 7.50179 22.83C7.50179 25.6143 8.60785 28.2845 10.5767 30.2533C12.5455 32.2221 15.2157 33.3282 18 33.3282C20.7844 33.3282 23.4546 32.2221 25.4234 30.2533C27.3922 28.2845 28.4983 25.6143 28.4983 22.83C28.5011 21.8142 28.3546 20.8036 28.0634 19.8304H34.4973C34.8951 19.8304 35.2765 19.6724 35.5578 19.3912C35.8391 19.1099 35.9971 18.7285 35.9971 18.3307V3.33318C35.9971 2.93543 35.8391 2.55396 35.5578 2.2727C35.2765 1.99144 34.8951 1.83343 34.4973 1.83343ZM4.09735 16.8309L11.7911 3.49816L16.9352 12.3317C15.4354 12.4986 13.9891 12.9869 12.6951 13.7634C11.401 14.5398 10.2896 15.5861 9.43647 16.8309H4.09735ZM18 30.3287C16.5169 30.3287 15.0671 29.8889 13.834 29.0649C12.6008 28.241 11.6397 27.0698 11.0721 25.6996C10.5045 24.3294 10.356 22.8216 10.6454 21.367C10.9347 19.9124 11.6489 18.5763 12.6976 17.5275C13.7463 16.4788 15.0825 15.7646 16.5371 15.4753C17.9917 15.1859 19.4995 15.3344 20.8697 15.902C22.2399 16.4696 23.4111 17.4307 24.235 18.6639C25.059 19.897 25.4988 21.3468 25.4988 22.83C25.4988 24.8187 24.7088 26.7261 23.3025 28.1324C21.8962 29.5387 19.9888 30.3287 18 30.3287ZM32.9976 16.8309H26.6086C25.2467 14.8864 23.2715 13.4553 20.9996 12.7666V4.83294H32.9976V16.8309Z" fill="#00B4FF"/>
</svg>
