<svg width="23" height="21" viewBox="0 0 23 21" fill="none" xmlns="http://www.w3.org/2000/svg">
<path d="M22.7487 9.04116V3.20816C22.7487 1.43842 21.3103 0 19.5406 0H3.20815C1.43842 0 0 1.43842 0 3.20816V9.04116C0 10.8109 1.43842 12.2493 3.20815 12.2493H9.74929L11.0267 17.786C11.1469 18.3017 11.5365 18.7146 12.0452 18.8605C12.5538 19.0098 13.1044 18.8651 13.4789 18.4906L14.5919 17.3789L17.6145 20.4015C17.9995 20.7877 18.5128 21 19.0576 21C19.6024 21 20.1157 20.7877 20.5007 20.4015L22.1503 18.752C22.5364 18.367 22.7487 17.8537 22.7487 17.3089C22.7487 16.7641 22.5364 16.2508 22.1503 15.8658L19.1276 12.8431L19.7401 12.2307C21.4153 12.1257 22.7487 10.7432 22.7487 9.04233V9.04116ZM3.20815 10.4994C2.40437 10.4994 1.7499 9.84495 1.7499 9.04116V3.20816C1.7499 2.40437 2.40437 1.7499 3.20815 1.7499H19.5406C20.3444 1.7499 20.9988 2.40437 20.9988 3.20816V9.04116C20.9988 9.46347 20.8133 9.83679 20.5252 10.1028C20.3397 9.69213 19.9827 9.38065 19.5371 9.27798L10.7479 7.24926C10.2544 7.13144 9.74696 7.2796 9.38881 7.63891C9.03066 7.99706 8.88484 8.50453 8.99917 8.998L9.34565 10.4994H3.20815ZM20.9137 17.1012C21.028 17.2155 21.028 17.3999 20.9137 17.5142L19.2641 19.1638C19.1498 19.2781 18.9654 19.2781 18.8511 19.1638L15.622 15.9346C15.3373 15.65 14.964 15.5076 14.5895 15.5076C14.215 15.5076 13.8429 15.65 13.5582 15.9346L12.6121 16.8807L10.8062 9.05866L18.6283 10.8646L17.6822 11.8107C17.114 12.3788 17.114 13.3051 17.6822 13.8744L20.9113 17.1035L20.9137 17.1012Z" fill="#DF52FF"/>
</svg>
