<svg width="23" height="23" viewBox="0 0 23 23" fill="none" xmlns="http://www.w3.org/2000/svg">
<path d="M11.5 0C5.14339 0 0 5.14424 0 11.5C0 17.8566 5.14424 23 11.5 23C17.8566 23 23 17.8558 23 11.5C23 5.14339 17.8558 0 11.5 0ZM11.5 21.6471C5.90491 21.6471 1.35294 17.0951 1.35294 11.5C1.35294 5.90491 5.90491 1.35294 11.5 1.35294C17.0951 1.35294 21.6471 5.90491 21.6471 11.5C21.6471 17.0951 17.0951 21.6471 11.5 21.6471Z" fill="#04B900"/>
<path d="M16.0371 6.96287C15.773 6.69874 15.3446 6.69874 15.0804 6.96287L6.96279 15.0805C6.6986 15.3447 6.6986 15.773 6.96279 16.0372C7.22697 16.3013 7.65522 16.3014 7.91945 16.0372L16.0371 7.91954C16.3013 7.65536 16.3013 7.22701 16.0371 6.96287Z" fill="#04B900"/>
<path d="M9.33438 10.5222C9.54165 10.2113 9.45763 9.79133 9.14677 9.5841L7.96168 8.79403L9.14677 8.00391C9.45767 7.79669 9.54165 7.37669 9.33438 7.06583C9.1271 6.75492 8.70711 6.671 8.39629 6.87822L6.36688 8.23116C5.96501 8.499 5.96618 9.08978 6.36688 9.35685L8.39629 10.7098C8.70688 10.9168 9.12697 10.8335 9.33438 10.5222Z" fill="#04B900"/>
<path d="M16.633 13.643L14.6035 12.2901C14.2927 12.0828 13.8727 12.1668 13.6655 12.4777C13.4582 12.7885 13.5422 13.2085 13.8531 13.4158L15.0382 14.2058L13.8531 14.996C13.5422 15.2032 13.4582 15.6232 13.6655 15.934C13.8737 16.2463 14.2941 16.3281 14.6036 16.1216L16.633 14.7687C17.0349 14.5008 17.0337 13.91 16.633 13.643Z" fill="#04B900"/>
</svg>
