<svg width="22" height="22" viewBox="0 0 22 22" fill="none" xmlns="http://www.w3.org/2000/svg">
<path d="M8 21H14C19 21 21 19 21 14V8C21 3 19 1 14 1H8C3 1 1 3 1 8V14C1 19 3 21 8 21Z" stroke="#3F04FE" stroke-width="1.5" stroke-linecap="round" stroke-linejoin="round"/>
<path d="M8 8.99994C9.10457 8.99994 10 8.10451 10 6.99994C10 5.89537 9.10457 4.99994 8 4.99994C6.89543 4.99994 6 5.89537 6 6.99994C6 8.10451 6.89543 8.99994 8 8.99994Z" stroke="#3F04FE" stroke-width="1.5" stroke-linecap="round" stroke-linejoin="round"/>
<path d="M1.66992 17.9502L6.59992 14.6402C7.38992 14.1102 8.52992 14.1702 9.23992 14.7802L9.56992 15.0702C10.3499 15.7402 11.6099 15.7402 12.3899 15.0702L16.5499 11.5002C17.3299 10.8302 18.5899 10.8302 19.3699 11.5002L20.9999 12.9002" stroke="#3F04FE" stroke-width="1.5" stroke-linecap="round" stroke-linejoin="round"/>
</svg>
