<svg width="27" height="36" viewBox="0 0 27 36" fill="none" xmlns="http://www.w3.org/2000/svg">
<path d="M10.5 15C9.30652 15 8.16193 15.4741 7.31802 16.318C6.4741 17.1619 6 18.3065 6 19.5C6 20.6935 6.4741 21.8381 7.31802 22.682C8.16193 23.5259 9.30652 24 10.5 24H16.5C17.6935 24 18.8381 23.5259 19.682 22.682C20.5259 21.8381 21 20.6935 21 19.5C21 18.3065 20.5259 17.1619 19.682 16.318C18.8381 15.4741 17.6935 15 16.5 15H10.5ZM18 19.5C18 19.8978 17.842 20.2794 17.5606 20.5607C17.2793 20.842 16.8978 21 16.5 21H10.5C10.1022 21 9.72064 20.842 9.43933 20.5607C9.15803 20.2794 8.99999 19.8978 8.99999 19.5C8.99999 19.1022 9.15803 18.7207 9.43933 18.4394C9.72064 18.158 10.1022 18 10.5 18H16.5C16.8978 18 17.2793 18.158 17.5606 18.4394C17.842 18.7207 18 19.1022 18 19.5ZM21 28.5C21 28.8978 20.842 29.2794 20.5606 29.5607C20.2793 29.842 19.8978 30 19.5 30H7.5C7.10217 30 6.72064 29.842 6.43934 29.5607C6.15803 29.2794 6 28.8978 6 28.5C6 28.1022 6.15803 27.7206 6.43934 27.4393C6.72064 27.158 7.10217 27 7.5 27H19.5C19.8978 27 20.2793 27.158 20.5606 27.4393C20.842 27.7206 21 28.1022 21 28.5ZM24.804 4.68152L22.317 2.19752C21.6223 1.4989 20.796 0.944965 19.8858 0.567769C18.9756 0.190573 17.9997 -0.00239696 17.0145 2.24718e-05H7.5C5.5116 0.00240426 3.60533 0.793345 2.19933 2.19935C0.793322 3.60536 0.00238178 5.51163 0 7.50002V28.5C0.00238178 30.4884 0.793322 32.3947 2.19933 33.8007C3.60533 35.2067 5.5116 35.9976 7.5 36H19.5C21.4884 35.9976 23.3946 35.2067 24.8007 33.8007C26.2067 32.3947 26.9976 30.4884 27 28.5V9.98552C27.0028 9.00014 26.8102 8.024 26.4332 7.11357C26.0563 6.20314 25.5025 5.37651 24.804 4.68152ZM22.683 6.80252C22.8941 7.01616 23.084 7.24975 23.25 7.50002H19.5V3.75002C19.7507 3.91431 19.9839 4.1038 20.196 4.31552L22.683 6.80252ZM24 28.5C24 29.6935 23.5259 30.8381 22.682 31.682C21.8381 32.5259 20.6935 33 19.5 33H7.5C6.30652 33 5.16193 32.5259 4.31802 31.682C3.4741 30.8381 3 29.6935 3 28.5V7.50002C3 6.30654 3.4741 5.16195 4.31802 4.31804C5.16193 3.47413 6.30652 3.00002 7.5 3.00002H16.5V7.50002C16.5 8.29567 16.8161 9.05873 17.3787 9.62134C17.9413 10.1839 18.7043 10.5 19.5 10.5H24V28.5Z" fill="#DF52FF"/>
</svg>
