<svg width="21" height="21" viewBox="0 0 21 21" fill="none" xmlns="http://www.w3.org/2000/svg">
<path d="M17.3372 9.27907H15.3837C13.02 9.27907 11.7209 7.98 11.7209 5.61628V3.66279C11.7209 1.29907 13.02 0 15.3837 0H17.3372C19.7009 0 21 1.29907 21 3.66279V5.61628C21 7.98 19.7009 9.27907 17.3372 9.27907ZM15.3837 1.46512C13.8405 1.46512 13.1861 2.11953 13.1861 3.66279V5.61628C13.1861 7.15953 13.8405 7.81395 15.3837 7.81395H17.3372C18.8805 7.81395 19.5349 7.15953 19.5349 5.61628V3.66279C19.5349 2.11953 18.8805 1.46512 17.3372 1.46512H15.3837Z" fill="#00B4FF"/>
<path d="M5.61628 21H3.66279C1.29907 21 0 19.7009 0 17.3372V15.3837C0 13.02 1.29907 11.7209 3.66279 11.7209H5.61628C7.98 11.7209 9.27907 13.02 9.27907 15.3837V17.3372C9.27907 19.7009 7.98 21 5.61628 21ZM3.66279 13.1861C2.11953 13.1861 1.46512 13.8405 1.46512 15.3837V17.3372C1.46512 18.8805 2.11953 19.5349 3.66279 19.5349H5.61628C7.15953 19.5349 7.81395 18.8805 7.81395 17.3372V15.3837C7.81395 13.8405 7.15953 13.1861 5.61628 13.1861H3.66279Z" fill="#00B4FF"/>
<path d="M4.63953 9.27907C2.08047 9.27907 0 7.1986 0 4.63953C0 2.08047 2.08047 0 4.63953 0C7.1986 0 9.27907 2.08047 9.27907 4.63953C9.27907 7.1986 7.1986 9.27907 4.63953 9.27907ZM4.63953 1.46512C2.89116 1.46512 1.46512 2.89116 1.46512 4.63953C1.46512 6.38791 2.89116 7.81395 4.63953 7.81395C6.38791 7.81395 7.81395 6.38791 7.81395 4.63953C7.81395 2.89116 6.38791 1.46512 4.63953 1.46512Z" fill="#00B4FF"/>
<path d="M16.3605 21C13.8014 21 11.7209 18.9196 11.7209 16.3605C11.7209 13.8014 13.8014 11.7209 16.3605 11.7209C18.9196 11.7209 21 13.8014 21 16.3605C21 18.9196 18.9196 21 16.3605 21ZM16.3605 13.1861C14.6121 13.1861 13.1861 14.6121 13.1861 16.3605C13.1861 18.1089 14.6121 19.5349 16.3605 19.5349C18.1089 19.5349 19.5349 18.1089 19.5349 16.3605C19.5349 14.6121 18.1089 13.1861 16.3605 13.1861Z" fill="#00B4FF"/>
</svg>
