<svg width="38" height="28" viewBox="0 0 38 28" fill="none" xmlns="http://www.w3.org/2000/svg">
<path d="M6.22222 12.4444H31.1111C34.5427 12.4444 37.3333 9.65378 37.3333 6.22222C37.3333 2.79067 34.5427 0 31.1111 0H6.22222C2.79067 0 0 2.79067 0 6.22222C0 9.65378 2.79067 12.4444 6.22222 12.4444ZM34.2222 6.22222C34.2222 7.938 32.8269 9.33333 31.1111 9.33333H24.8889V3.11111H31.1111C32.8269 3.11111 34.2222 4.50644 34.2222 6.22222ZM6.22222 3.11111H21.7778V9.33333H6.22222C4.50644 9.33333 3.11111 7.938 3.11111 6.22222C3.11111 4.50644 4.50644 3.11111 6.22222 3.11111ZM31.1111 15.5556H6.22222C2.79067 15.5556 0 18.3462 0 21.7778C0 25.2093 2.79067 28 6.22222 28H31.1111C34.5427 28 37.3333 25.2093 37.3333 21.7778C37.3333 18.3462 34.5427 15.5556 31.1111 15.5556ZM3.11111 21.7778C3.11111 20.062 4.50644 18.6667 6.22222 18.6667H12.4444V24.8889H6.22222C4.50644 24.8889 3.11111 23.4936 3.11111 21.7778ZM31.1111 24.8889H15.5556V18.6667H31.1111C32.8269 18.6667 34.2222 20.062 34.2222 21.7778C34.2222 23.4936 32.8269 24.8889 31.1111 24.8889Z" fill="#5C76F6"/>
</svg>
