<svg width="38" height="38" viewBox="0 0 38 38" fill="none" xmlns="http://www.w3.org/2000/svg">
<path d="M23.4931 20.5562L26.8919 20.2262C27.6749 22.1416 29.5543 23.4976 31.7487 23.4976C34.6436 23.4976 36.9985 21.1427 36.9985 18.2478C36.9985 15.3529 34.6436 12.998 31.7487 12.998C29.1988 12.998 27.0719 14.8264 26.6009 17.2413L22.9141 17.5983C22.5706 16.7823 22.0726 16.0534 21.4786 15.4144L24.237 11.2506C24.7185 11.3976 25.2195 11.4996 25.749 11.4996C28.6438 11.4996 30.9988 9.14466 30.9988 6.24978C30.9988 3.3549 28.6438 1 25.749 1C22.8541 1 20.4992 3.3549 20.4992 6.24978C20.4992 7.52623 20.9762 8.68268 21.7351 9.59314L19.0427 13.6595C18.1098 13.2425 17.0853 12.9995 15.9994 12.9995C14.9134 12.9995 13.889 13.2425 12.956 13.6595L10.2636 9.59314C11.0241 8.68268 11.4996 7.52623 11.4996 6.24978C11.4996 3.3549 9.14466 1 6.24978 1C3.3549 1 1 3.3549 1 6.24978C1 9.14466 3.3549 11.4996 6.24978 11.4996C6.77926 11.4996 7.28024 11.3976 7.76172 11.2506L10.5201 15.4144C9.27666 16.7538 8.49969 18.5313 8.49969 20.4992C8.49969 22.1926 9.08616 23.7406 10.0371 24.9975L8.36919 26.9534C7.71972 26.6654 7.00575 26.4989 6.25128 26.4989C3.3564 26.4989 1.0015 28.8538 1.0015 31.7487C1.0015 34.6436 3.3564 36.9985 6.25128 36.9985C9.14616 36.9985 11.5011 34.6436 11.5011 31.7487C11.5011 30.6988 11.1831 29.7238 10.6506 28.9018L12.2915 26.9774C13.3895 27.6089 14.6449 27.9989 16.0009 27.9989C17.6598 27.9989 19.1792 27.4409 20.4227 26.5259L23.973 29.5993C23.6761 30.2578 23.5006 30.9823 23.5006 31.7502C23.5006 34.6451 25.8555 37 28.7503 37C31.6452 37 34.0001 34.6451 34.0001 31.7502C34.0001 28.8553 31.6452 26.5004 28.7503 26.5004C27.7139 26.5004 26.7524 26.8124 25.938 27.3329L22.4311 24.2985C23.0851 23.1961 23.4841 21.9271 23.4946 20.5592L23.4931 20.5562ZM31.7487 15.9994C32.9892 15.9994 33.9986 17.0088 33.9986 18.2493C33.9986 19.4897 32.9892 20.4992 31.7487 20.4992C30.5083 20.4992 29.4988 19.4897 29.4988 18.2493C29.4988 17.0088 30.5083 15.9994 31.7487 15.9994ZM25.749 3.99988C26.9894 3.99988 27.9989 5.00933 27.9989 6.24978C27.9989 7.49023 26.9894 8.49969 25.749 8.49969C24.5085 8.49969 23.4991 7.49023 23.4991 6.24978C23.4991 5.00933 24.5085 3.99988 25.749 3.99988ZM3.99988 6.24978C3.99988 5.00933 5.00933 3.99988 6.24978 3.99988C7.49023 3.99988 8.49969 5.00933 8.49969 6.24978C8.49969 7.49023 7.49023 8.49969 6.24978 8.49969C5.00933 8.49969 3.99988 7.49023 3.99988 6.24978ZM6.24978 33.9986C5.00933 33.9986 3.99988 32.9892 3.99988 31.7487C3.99988 30.5083 5.00933 29.4988 6.24978 29.4988C7.49023 29.4988 8.49969 30.5083 8.49969 31.7487C8.49969 32.9892 7.49023 33.9986 6.24978 33.9986ZM15.9994 24.999C13.5185 24.999 11.4996 22.9801 11.4996 20.4992C11.4996 18.0183 13.5185 15.9994 15.9994 15.9994C18.4803 15.9994 20.4992 18.0183 20.4992 20.4992C20.4992 22.9801 18.4803 24.999 15.9994 24.999ZM28.7488 29.4988C29.9893 29.4988 30.9988 30.5083 30.9988 31.7487C30.9988 32.9892 29.9893 33.9986 28.7488 33.9986C27.5084 33.9986 26.4989 32.9892 26.4989 31.7487C26.4989 30.5083 27.5084 29.4988 28.7488 29.4988Z" fill="#F6CA45" stroke="#F6CA45" stroke-width="0.2"/>
</svg>
