<svg width="36" height="36" viewBox="0 0 36 36" fill="none" xmlns="http://www.w3.org/2000/svg">
<rect width="36" height="36" fill="#F5F5F5"/>
<g id="Welcome">
<g id="Welcome_2">
<g id="BGs">
<rect id="Rectangle Copy 8" x="-550" y="-1196" width="1920" height="2593" fill="#E4E0F1"/>
</g>
</g>
<g id="WPVR Features">
<g id="Rectangle 18621" filter="url(#filter0_d_0_1)">
<rect x="-40" y="-164" width="900" height="1320" rx="10" fill="white"/>
</g>
<g id="Features">
<g id="Guided Video">
<g id="Group">
<path id="Vector" d="M33.8611 15.2269C32.5621 14.6899 31.0802 14.9824 30.0857 15.9769L29.4288 16.6339C28.7793 15.0679 27.6138 13.769 26.1454 12.947C27.5928 11.5791 28.4973 9.64264 28.4973 7.49773C28.4973 3.36241 25.1329 -0.00195312 20.9976 -0.00195312C18.5467 -0.00195312 16.3673 1.18 14.9979 3.00242C13.6284 1.1785 11.449 -0.00195312 8.99813 -0.00195312C4.8643 -0.000453187 1.49994 3.36391 1.49994 7.49923C1.49994 9.64264 2.4044 11.5806 3.85184 12.9485C1.55544 14.2325 0 16.6879 0 19.4987V28.4984C0 32.6337 3.36436 35.998 7.49969 35.998H22.4991C25.6204 35.998 28.3023 34.0811 29.4303 31.3632L30.0872 32.0202C30.7517 32.6847 31.6337 33.0372 32.5321 33.0372C32.9791 33.0372 33.4306 32.9502 33.8611 32.7717C35.16 32.2347 35.9985 30.9778 35.9985 29.5723V18.4293C35.9985 17.0223 35.1585 15.7669 33.8611 15.2299V15.2269ZM20.9991 2.99942C23.48 2.99942 25.4989 5.01834 25.4989 7.49923C25.4989 9.98013 23.48 11.999 20.9991 11.999C18.5182 11.999 16.4993 9.98013 16.4993 7.49923C16.4993 5.01834 18.5182 2.99942 20.9991 2.99942ZM8.99962 2.99942C11.4805 2.99942 13.4994 5.01834 13.4994 7.49923C13.4994 9.98013 11.4805 11.999 8.99962 11.999C6.51873 11.999 4.49981 9.98013 4.49981 7.49923C4.49981 5.01834 6.51873 2.99942 8.99962 2.99942ZM26.9989 28.4984C26.9989 30.9793 24.98 32.9982 22.4991 32.9982H7.49969C5.01879 32.9982 2.99987 30.9793 2.99987 28.4984V19.4987C2.99987 17.0178 5.01879 14.9989 7.49969 14.9989H22.4991C24.98 14.9989 26.9989 17.0178 26.9989 19.4987V28.4984ZM32.9986 29.5693C32.9986 29.8258 32.8426 29.9443 32.7121 29.9983C32.5831 30.0523 32.3896 30.0793 32.2067 29.8978L29.9987 27.6899V20.3072L32.2067 18.0993C32.3896 17.9178 32.5831 17.9448 32.7121 17.9988C32.8426 18.0528 32.9986 18.1713 32.9986 18.4278V29.5693Z" fill="#EB79AD"/>
</g>
</g>
</g>
</g>
</g>
<defs>
<filter id="filter0_d_0_1" x="-41" y="-164" width="902" height="1322" filterUnits="userSpaceOnUse" color-interpolation-filters="sRGB">
<feFlood flood-opacity="0" result="BackgroundImageFix"/>
<feColorMatrix in="SourceAlpha" type="matrix" values="0 0 0 0 0 0 0 0 0 0 0 0 0 0 0 0 0 0 127 0" result="hardAlpha"/>
<feOffset dy="1"/>
<feGaussianBlur stdDeviation="0.5"/>
<feComposite in2="hardAlpha" operator="out"/>
<feColorMatrix type="matrix" values="0 0 0 0 0.722357 0 0 0 0 0.696078 0 0 0 0 0.807764 0 0 0 0.7 0"/>
<feBlend mode="normal" in2="BackgroundImageFix" result="effect1_dropShadow_0_1"/>
<feBlend mode="normal" in="SourceGraphic" in2="effect1_dropShadow_0_1" result="shape"/>
</filter>
</defs>
</svg>
